<svg xmlns="http://www.w3.org/2000/svg" viewBox="0 0 16 16"><defs><style>.cls-1{fill:#fff;}</style></defs><title>icon-published-sm</title><g id="outline"><path class="cls-1" d="M4.25,4.46,9,1.7V1C9,.17,8.5-.24,7.84.14L2.3,3.34A2.85,2.85,0,0,0,1.12,5.61v6c0,.88.53,1.28,1.18.9l.77-.44V6.73A2.85,2.85,0,0,1,4.25,4.46Z"/><path class="cls-1" d="M13.7,12.66l-5.54,3.2C7.5,16.24,7,15.83,7,15V9A2.81,2.81,0,0,1,8.16,6.7L13.7,3.5c.65-.38,1.18,0,1.18.9v6A2.85,2.85,0,0,1,13.7,12.66Z"/><path class="cls-1" d="M7.18,6.14,12,3.38V2.72c0-.88-.53-1.28-1.19-.9L5.23,5A2.83,2.83,0,0,0,4,7.29v6c0,.88.53,1.28,1.19.9L6,13.74V8.41A2.86,2.86,0,0,1,7.18,6.14Z"/></g></svg>